<svg width="22" height="18" viewBox="0 0 22 18" fill="none" xmlns="http://www.w3.org/2000/svg">
<path fill-rule="evenodd" clip-rule="evenodd" d="M21.6623 8.33745C21.8379 8.51323 21.9365 8.75151 21.9365 8.99995C21.9365 9.24839 21.8379 9.48667 21.6623 9.66245L14.1623 17.1624C14.0765 17.2546 13.973 17.3284 13.858 17.3797C13.743 17.4309 13.6189 17.4585 13.493 17.4607C13.3671 17.4629 13.2421 17.4398 13.1254 17.3926C13.0086 17.3454 12.9026 17.2753 12.8136 17.1862C12.7245 17.0972 12.6543 16.9912 12.6072 16.8744C12.56 16.7577 12.5369 16.6327 12.5391 16.5068C12.5413 16.3809 12.5689 16.2568 12.6201 16.1418C12.6714 16.0268 12.7452 15.9233 12.8373 15.8374L18.7373 9.93745L0.999847 9.93745C0.751207 9.93745 0.512751 9.83868 0.336935 9.66286C0.161119 9.48704 0.0623474 9.24859 0.0623474 8.99995C0.0623474 8.75131 0.161119 8.51285 0.336935 8.33704C0.512751 8.16122 0.751207 8.06245 0.999847 8.06245H18.7373L12.8373 2.16245C12.7452 2.07662 12.6714 1.97312 12.6201 1.85812C12.5689 1.74312 12.5413 1.61898 12.5391 1.4931C12.5369 1.36722 12.56 1.24219 12.6072 1.12545C12.6543 1.00872 12.7245 0.902673 12.8136 0.81365C12.9026 0.724626 13.0086 0.654445 13.1254 0.607294C13.2421 0.560143 13.3671 0.536987 13.493 0.539208C13.6189 0.541429 13.743 0.568981 13.858 0.620221C13.973 0.671461 14.0765 0.745339 14.1623 0.837447L21.6623 8.33745Z" fill="#E1B45E"/>
</svg>